<?xml version="1.0" encoding="utf-8"?>
<!-- Generator: Adobe Illustrator 16.0.0, SVG Export Plug-In . SVG Version: 6.00 Build 0)  -->
<!DOCTYPE svg PUBLIC "-//W3C//DTD SVG 1.1//EN" "http://www.w3.org/Graphics/SVG/1.1/DTD/svg11.dtd">
<svg version="1.1" id="Ebene_1" xmlns="http://www.w3.org/2000/svg" xmlns:xlink="http://www.w3.org/1999/xlink" x="0px" y="0px"
	 width="2328px" height="302px" viewBox="0 0 2328 302" enable-background="new 0 0 2328 302" xml:space="preserve">
<g>
	<defs>
		<rect id="SVGID_1_" x="-340" y="-965" width="3000" height="2250"/>
	</defs>
	<clipPath id="SVGID_2_">
		<use xlink:href="#SVGID_1_"  overflow="visible"/>
	</clipPath>
	<g clip-path="url(#SVGID_2_)">
		<path fill-rule="evenodd" clip-rule="evenodd" fill="#FFA52E" d="M155.632,10.148c85.813,1.03,141.286,59.237,140.028,147.328
			c-1.037,72.639-59.331,137.781-147.609,134.717c-76.236-2.646-134.846-63.952-133.74-143.034
			C15.458,67.186,74.431,9.175,155.632,10.148z M267.475,151.228c-0.217-66.281-47.963-114.804-112.708-114.541
			C89.521,36.953,42.175,86.191,42.57,153.371c0.369,63.071,49.926,112.246,112.839,111.975
			C219.346,265.068,267.687,215.842,267.475,151.228z"/>
		<path fill-rule="evenodd" clip-rule="evenodd" fill="#6B6767" d="M1190.41,10.042c81.914,0.045,139.85,58.928,139.666,141.95
			c-0.178,80.515-59.303,139.964-139.117,139.875c-82.346-0.089-141.878-58.73-142.219-140.09
			C1048.395,69.014,1107.383,9.997,1190.41,10.042z M1190.31,36.55c-64.615-0.315-113.487,48.626-113.708,113.866
			c-0.217,64.35,48.167,114.306,111.379,114.999c63.836,0.701,113.817-48.703,114.833-113.502
			C1303.823,87.736,1254.208,36.859,1190.31,36.55z"/>
		<path fill-rule="evenodd" clip-rule="evenodd" fill="#6B6767" d="M1386.055,116.267c-0.011-27.807,0.075-55.616-0.057-83.422
			c-0.046-10.065,1.072-19.175,14.045-19.263c12.814-0.089,14.468,8.677,14.448,18.926c-0.106,50.248,2.343,100.636-0.612,150.712
			c-4.126,69.896,56.084,92.97,106.765,80.979c36.581-8.654,55.36-34.12,55.36-71.997c-0.003-50.738-0.025-101.475-0.028-152.212
			c0-3.902,0.009-7.808,0.191-11.705c0.427-9.075,4.498-14.703,14.297-14.814c9.999-0.114,13.999,6.017,14.242,14.774
			c0.429,15.601,0.209,31.22,0.215,46.832c0.011,37.565-1.119,75.168,0.22,112.688c2.67,74.83-57.535,111.945-122.065,105.906
			c-39.651-3.711-71.912-20.23-89.401-58.568c-5.139-11.267-7.539-23.108-7.578-35.41
			C1386.004,171.882,1386.066,144.076,1386.055,116.267z"/>
		<path fill-rule="evenodd" clip-rule="evenodd" fill="#6B6767" d="M1973.226,10.151c35.051-1.422,61.887,11.888,81.979,38.813
			c5.376,7.204,10.237,15.913,0.77,23.065c-9.682,7.318-16.754,1.568-23.128-6.781c-22.413-29.337-63.091-37.94-95.821-20.556
			c-14.027,7.453-21.572,19.24-22.273,35.176c-0.735,16.7,6.623,29.262,20.677,37.68c12.694,7.604,26.8,11.347,41.425,13.361
			c16.459,2.263,32.587,5.828,47.748,13c29.7,14.05,43.587,38.026,42.989,70.252c-0.587,31.617-15.077,55.692-44.386,68.015
			c-39.886,16.766-78.956,13.407-115.757-10.142c-10.915-6.981-19.049-16.683-25.555-27.704c-4.114-6.975-7.642-14.957,1.433-20.496
			c8.804-5.367,17.084-3.062,22.383,6.022c14.603,25.025,38.246,33.199,65.122,35.322c12.316,0.973,24.367-0.912,35.895-5.347
			c17.655-6.796,29.509-18.812,32.178-38.152c2.833-20.554-3.685-37.591-20.769-49.848c-12.576-9.021-27.153-12.743-42.282-14.826
			c-22.92-3.156-44.941-8.772-63.381-23.921c-40.438-33.228-32.601-92.294,15.135-113.783
			C1942.507,12.597,1958.054,9.141,1973.226,10.151z"/>
		<path fill-rule="evenodd" clip-rule="evenodd" fill="#6B6767" d="M1674.126,217.924c0.009-18.05,0.289-36.105-0.126-54.145
			c-0.175-7.616,2.372-9.931,10.036-9.842c24.868,0.283,49.788,0.632,74.607-0.629c28.267-1.436,48.826-17.555,54.714-40.618
			c9.37-36.721-14.514-69.488-53.925-72.003c-24.298-1.55-48.76-0.495-73.142-0.844c-5.19-0.074-12.537,2.807-12.343-7.255
			c0.169-8.692,0.587-18.792,11.47-18.686c31.611,0.309,63.553-4.3,94.789,2.578c33.505,7.382,57.274,34.542,61.955,67.975
			c5.19,37.082-9.891,68.937-42.366,85.553c-10.208,5.225-8.774,8.854-3.708,16.62c16.239,24.896,31.826,50.222,47.527,75.465
			c4.944,7.945,10.841,17.095-0.134,23.973c-10.577,6.629-17.896,0.332-23.764-9.176c-17.409-28.192-35.546-55.938-52.74-84.263
			c-5.096-8.395-10.521-12.909-20.813-11.744c-14.34,1.622-33.706-6.022-41.832,3.09c-7.135,8.005-2.14,26.934-2.274,41.041
			c-0.146,15.61-0.223,31.226,0.038,46.832c0.162,9.802-3.276,16.319-13.865,16.451c-10.691,0.132-14.208-6.503-14.147-16.225
			C1674.197,254.024,1674.117,235.975,1674.126,217.924z"/>
		<path fill-rule="evenodd" clip-rule="evenodd" fill="#6B6767" d="M915.22,291.925c-76.128-0.157-138.333-64.03-137.556-141.272
			c0.8-79.413,60.727-140.321,137.714-140.756c30.417-0.175,57.511,8.188,81.549,26.756c6.716,5.19,12.091,10.823,5.55,19.377
			c-6.354,8.309-13.896,10.274-22.299,2.36c-28.533-26.871-83.386-28.582-117.808-7.493
			c-39.951,24.476-62.873,71.683-56.153,115.574c13.172,86.031,106.69,127.845,174.527,76.381c7.37-5.591,15.54-8.271,21.778,0.249
			c6.334,8.651,2.36,16.422-5.523,22.665C972.995,284.775,945.346,292.185,915.22,291.925z"/>
		<path fill-rule="evenodd" clip-rule="evenodd" fill="#FFA52E" d="M549.86,209.83c-0.01-20.468,0.422-40.949-0.199-61.403
			c-0.296-9.776,3.328-12.225,12.623-12.122c40.448,0.446,80.902,0.3,121.353,0.151c10.174-0.037,17.801,3.099,17.612,14.408
			c-0.183,10.915-7.956,12.749-17.375,12.657c-30.701-0.297-61.422,0.433-92.104-0.4c-11.972-0.323-14.823,3.88-14.59,15.063
			c0.639,30.69-0.052,61.406,0.339,92.105c0.133,10.511-3.762,17.532-14.256,17.815c-10.499,0.283-13.563-7.271-13.46-16.866
			C550.021,250.771,549.87,230.301,549.86,209.83z"/>
		<path fill-rule="evenodd" clip-rule="evenodd" fill="#FFA52E" d="M330.313,209.184c0.008-20.01,0.351-40.031-0.146-60.03
			c-0.226-9.069,1.887-12.94,12.095-12.8c40.502,0.555,81.019,0.363,121.528,0.075c10.351-0.075,17.979,3.124,17.84,14.228
			c-0.133,10.591-7.963,12.963-17.451,12.877c-29.771-0.269-59.561,0.455-89.31-0.38c-12.816-0.358-17.966,2.414-17.425,16.64
			c1.149,30.218,0.183,60.51,0.316,90.769c0.04,9.278-1.824,17.138-12.84,17.397c-11.308,0.27-14.866-6.804-14.707-17.277
			C330.525,250.186,330.305,229.683,330.313,209.184z"/>
		<path fill-rule="evenodd" clip-rule="evenodd" fill="#FFA52E" d="M422.318,39.914c-26.305,0.009-52.61,0.172-78.912-0.125
			c-5.37-0.06-13.578,3.567-13.233-7.756c0.273-8.958,1.279-16.792,12.176-18.313c2.397-0.335,4.861-0.257,7.294-0.257
			c51.634-0.003,103.269,0.065,154.901-0.035c8.991-0.017,17.408,1.03,18.057,12.103c0.597,10.182-5.098,14.623-15.528,14.494
			C478.826,39.674,450.571,39.903,422.318,39.914z"/>
		<path fill-rule="evenodd" clip-rule="evenodd" fill="#6B6767" d="M2217.589,262.52c27.809-0.003,55.621,0.263,83.425-0.155
			c9.195-0.14,15.878,2.163,15.981,12.165c0.097,9.453-5.985,13.891-15.216,13.896c-54.156,0.043-108.309,0.089-162.463,0.012
			c-9.207-0.012-14.336-4.984-15.446-14.177c-0.944-7.822,0.003-12.328,10.3-12.022
			C2161.953,263.065,2189.779,262.521,2217.589,262.52z"/>
		<path fill-rule="evenodd" clip-rule="evenodd" fill="#6B6767" d="M2217.174,39.9c-26.816,0.014-53.636,0.2-80.449-0.149
			c-5.121-0.068-13.513,4.157-13.046-7.553c0.357-9.012,1.394-16.734,12.039-18.574c2.372-0.412,4.863-0.149,7.298-0.149
			c51.685,0,103.369,0.183,155.051-0.14c10.734-0.066,19.274,2.294,18.868,14.408c-0.397,11.899-9.907,12.302-19.309,12.222
			C2270.81,39.74,2243.993,39.886,2217.174,39.9z"/>
		<path fill-rule="evenodd" clip-rule="evenodd" fill="#FFA52E" d="M644.376,39.932c-27.341,0-54.684,0.097-82.024-0.083
			c-5.277-0.035-12.437,2.429-12.424-7.464c0.01-8.266,0.365-16.051,10.252-18.417c3.259-0.781,6.798-0.509,10.208-0.512
			c51.266-0.014,102.531,0.123,153.796-0.077c10.005-0.04,17.821,1.759,17.781,13.781c-0.034,10.229-6.344,12.892-15.565,12.8
			c-27.338-0.266-54.683-0.094-82.024-0.094C644.376,39.889,644.376,39.912,644.376,39.932z"/>
		<path fill-rule="evenodd" clip-rule="evenodd" fill="#6B6767" d="M2196.432,162.967c-20.94-0.006-41.911-0.707-62.803,0.274
			c-11.235,0.526-10.14-5.813-9.75-12.666c0.366-6.492-3.388-14.545,9.533-14.328c41.865,0.704,83.75,0.338,125.627,0.198
			c9.573-0.032,16.843,3.127,16.949,13.51c0.105,10.54-6.941,13.375-16.743,13.16
			C2238.313,162.655,2217.371,162.973,2196.432,162.967z"/>
		<path fill-rule="evenodd" clip-rule="evenodd" fill="#6B6767" d="M1163.674,108.287c24.733,14.319,47.355,27.414,72.438,41.937
			c-24.824,14.395-47.91,27.778-72.438,41.997C1163.674,163.662,1163.674,137.246,1163.674,108.287z"/>
	</g>
</g>
</svg>
